<?xml version="1.0" encoding="UTF-8" standalone="no"?>
<!-- Created with Inkscape (http://www.inkscape.org/) -->

<svg
   width="87.685707mm"
   height="90.514297mm"
   viewBox="0 0 87.685707 90.514297"
   version="1.1"
   id="svg5"
   xmlns="http://www.w3.org/2000/svg"
   xmlns:svg="http://www.w3.org/2000/svg">
  <defs
     id="defs2" />
  <g
     id="layer1"
     transform="translate(-78.068573,-108.05143)">
    <rect
       style="fill:#ff0000;stroke-width:0.264583"
       id="rect217"
       width="87.685707"
       height="90.514297"
       x="78.068573"
       y="108.05143"
       ry="43.842854" />
    <path
       style="fill:none;fill-rule:evenodd;stroke:#000000;stroke-width:0.264583"
       id="path383"
       d="m 103.52571,138.03429 c 0.56728,0.48218 -0.3701,1.00257 -0.80143,0.94285 -1.16886,-0.16183 -1.47268,-1.61756 -1.08428,-2.54571 0.69476,-1.66025 2.81926,-2.0204 4.29,-1.22571 2.15837,1.16623 2.58273,4.03668 1.36714,6.03428 -1.62019,2.6625 -5.2596,3.1512 -7.778573,1.50857 -3.169868,-2.06708 -3.722814,-6.48513 -1.649997,-9.52286 2.51046,-3.6791 7.71212,-4.29625 11.26714,-1.79142 4.18948,2.95185 4.87084,8.94002 1.93286,13.01143 -3.39202,4.7006 -10.16853,5.44618 -14.755719,2.07428 -5.212256,-3.83137 -6.022059,-11.39746 -2.215708,-16.5 4.270151,-5.72428 12.626707,-6.59833 18.244287,-2.35714 6.23657,4.70853 7.17488,13.8562 2.49856,19.98857" />
    <path
       style="fill:none;fill-rule:evenodd;stroke:#000000;stroke-width:0.264583"
       id="path385"
       d="m 138.03429,139.16571 c 0.59564,0.56728 -0.47082,1.08279 -0.94286,0.99 -1.27921,-0.25146 -1.52349,-1.87616 -1.03714,-2.87571 0.86996,-1.78797 3.23587,-2.05265 4.80857,-1.08429 2.308,1.42111 2.59695,4.61384 1.13143,6.74143 -1.95332,2.83574 -5.99826,3.14767 -8.67429,1.17857 -3.36751,-2.47792 -3.70171,-7.38574 -1.22571,-10.60714 2.99876,-3.90155 8.77496,-4.25767 12.54,-1.27286 4.43697,3.5175 4.81482,10.16525 1.31999,14.47286 -4.03491,4.9733 -11.55626,5.37279 -16.40571,1.36714 -5.51026,-4.55148 -5.93131,-12.94778 -1.41428,-18.33857 5.06743,-6.04766 14.33966,-6.49025 20.27143,-1.46143 6.58538,5.58295 7.04948,15.73183 1.50856,22.20429" />
  </g>
</svg>
