<?xml version="1.0" encoding="UTF-8" standalone="no"?>

<svg
   width="210mm"
   height="297mm"
   viewBox="0 0 210 297"
   version="1.1"
   id="svg5"
   xmlns:inkscape="http://www.inkscape.org/namespaces/inkscape"
   xmlns:sodipodi="http://sodipodi.sourceforge.net/DTD/sodipodi-0.dtd"
   xmlns="http://www.w3.org/2000/svg"
   xmlns:svg="http://www.w3.org/2000/svg">
  <sodipodi:namedview
     id="namedview7"
     pagecolor="#ffffff"
     bordercolor="#000000"
     borderopacity="0.25"
     inkscape:showpageshadow="2"
     inkscape:pageopacity="0.0"
     inkscape:pagecheckerboard="0"
     inkscape:deskcolor="#d1d1d1"
     inkscape:document-units="mm"
     showgrid="false" />
  <defs
     id="defs2" />
  <g
     inkscape:label="Capa 1"
     inkscape:groupmode="layer"
     id="layer1">
    <path
       style="fill:none;stroke:#000000;stroke-width:0.264583;stroke-opacity:1"
       d="m 25.457143,47.52 c 15.388282,9.354954 28.381167,21.724267 42.994285,32.245714 9.193966,6.619656 12.334335,4.754351 18.102857,12.445715 7.812749,10.417001 1.806821,16.587961 -5.09143,25.457141 -7.473923,9.60933 -23.633726,28.35136 -20.931428,41.86286 0.0827,0.41347 0.815253,0.28673 1.13143,0.56571 2.901243,2.55992 5.749803,5.18409 8.485714,7.92 2.735911,2.73591 5.028152,5.91518 7.92,8.48571 4.863947,4.32352 14.311379,8.75816 19.234285,11.88 0.263297,0.16697 13.415464,11.40939 18.102854,9.61715 10.68834,-4.08672 14.82745,-10.63459 17.53714,-20.93143 3.73318,-14.18606 -3.82332,-25.86248 -14.14285,-34.50857 -3.73024,-3.12534 -7.58235,-6.20259 -11.88,-8.48572 -3.09311,-1.64321 -20.020571,-1.65807 -20.365715,-1.69714 -11.424528,-1.29334 -15.632737,-1.55897 -24.325715,-7.35429 -0.39462,-0.26308 -1.760034,-14.03802 -1.131427,-15.27428 5.057159,-9.945746 10.399742,-19.834463 16.971428,-28.851428 3.512598,-4.819613 13.576477,-5.914075 18.102855,-7.354285 8.406554,-2.674815 17.401794,-7.966739 26.588574,-7.354286 1.14449,0.0763 2.83384,-0.435081 3.39428,0.565713 2.45923,4.391475 8.19502,26.827657 8.48572,30.548572 0.59309,7.591524 0.53717,21.796794 -5.65715,28.851424 -7.02886,8.0051 -25.26247,20.22413 -33.377137,26.58858 -13.141301,10.3069 -8.735624,8.65232 -22.062856,17.53714 -4.789976,3.19332 -9.826786,6.00031 -14.708573,9.05143 -1.430261,0.89391 -3.079435,3.13062 -4.525714,2.26285 -3.089502,-1.8537 -3.361804,-7.05345 -3.96,-9.61714 -2.017091,-8.64468 -3.858636,-17.33007 -5.657141,-26.02285 -1.595972,-7.71387 -3.679055,-15.36269 -4.525716,-23.19429 -0.668843,-6.18681 0,-12.44572 0,-18.66857 0,-6.034289 0,-12.068575 0,-18.102858 0,-0.868244 0.513138,-26.333268 0,-27.154288 C 37.254386,54.176162 35.151787,54.360238 29.982855,50.914286 28.413847,49.86828 26.965714,48.651429 25.457143,47.52 Z"
       id="path122" />
  </g>
</svg>
